<mxfile host="Electron" agent="Mozilla/5.0 (Windows NT 10.0; Win64; x64) AppleWebKit/537.36 (KHTML, like Gecko) draw.io/26.0.9 Chrome/128.0.6613.186 Electron/32.2.5 Safari/537.36" version="26.0.9">
  <diagram name="Страница — 1" id="_5YfL1GH1JcOgZFN31Vy">
    <mxGraphModel dx="1036" dy="614" grid="0" gridSize="10" guides="1" tooltips="1" connect="1" arrows="1" fold="1" page="1" pageScale="1" pageWidth="827" pageHeight="1169" math="0" shadow="0">
      <root>
        <mxCell id="0" />
        <mxCell id="1" parent="0" />
        <mxCell id="NzTkiTy3NaJ4mb6epkrC-29" style="edgeStyle=orthogonalEdgeStyle;rounded=0;orthogonalLoop=1;jettySize=auto;html=1;exitX=0.5;exitY=1;exitDx=0;exitDy=0;endArrow=none;startFill=0;" edge="1" parent="1" source="NzTkiTy3NaJ4mb6epkrC-6" target="NzTkiTy3NaJ4mb6epkrC-28">
          <mxGeometry relative="1" as="geometry" />
        </mxCell>
        <mxCell id="NzTkiTy3NaJ4mb6epkrC-6" value="na, a, nb, b, nc, c" style="shape=parallelogram;perimeter=parallelogramPerimeter;whiteSpace=wrap;html=1;fixedSize=1;" vertex="1" parent="1">
          <mxGeometry x="430" y="90" width="120" height="60" as="geometry" />
        </mxCell>
        <mxCell id="NzTkiTy3NaJ4mb6epkrC-8" value="начало" style="rounded=1;whiteSpace=wrap;html=1;arcSize=50;" vertex="1" parent="1">
          <mxGeometry x="430" y="40" width="120" height="30" as="geometry" />
        </mxCell>
        <mxCell id="NzTkiTy3NaJ4mb6epkrC-27" style="edgeStyle=orthogonalEdgeStyle;rounded=0;orthogonalLoop=1;jettySize=auto;html=1;exitX=0.5;exitY=1;exitDx=0;exitDy=0;entryX=0.5;entryY=0;entryDx=0;entryDy=0;endArrow=none;startFill=0;" edge="1" parent="1" source="NzTkiTy3NaJ4mb6epkrC-8" target="NzTkiTy3NaJ4mb6epkrC-6">
          <mxGeometry relative="1" as="geometry" />
        </mxCell>
        <mxCell id="NzTkiTy3NaJ4mb6epkrC-37" style="edgeStyle=orthogonalEdgeStyle;shape=connector;rounded=0;orthogonalLoop=1;jettySize=auto;html=1;exitX=0.5;exitY=1;exitDx=0;exitDy=0;entryX=0.5;entryY=0;entryDx=0;entryDy=0;strokeColor=default;align=center;verticalAlign=middle;fontFamily=Helvetica;fontSize=11;fontColor=default;labelBackgroundColor=default;startFill=0;endArrow=none;" edge="1" parent="1" source="NzTkiTy3NaJ4mb6epkrC-28" target="NzTkiTy3NaJ4mb6epkrC-36">
          <mxGeometry relative="1" as="geometry" />
        </mxCell>
        <mxCell id="NzTkiTy3NaJ4mb6epkrC-28" value="min_e(na, a)&lt;div&gt;min_e(nb, b)&lt;br&gt;&lt;/div&gt;&lt;div&gt;min_e(nc, c)&lt;br&gt;&lt;/div&gt;" style="shape=process;whiteSpace=wrap;html=1;backgroundOutline=1;" vertex="1" parent="1">
          <mxGeometry x="430" y="170" width="120" height="60" as="geometry" />
        </mxCell>
        <mxCell id="NzTkiTy3NaJ4mb6epkrC-36" value="конец" style="rounded=1;whiteSpace=wrap;html=1;arcSize=50;" vertex="1" parent="1">
          <mxGeometry x="430" y="250" width="120" height="30" as="geometry" />
        </mxCell>
        <mxCell id="NzTkiTy3NaJ4mb6epkrC-42" style="edgeStyle=orthogonalEdgeStyle;shape=connector;rounded=0;orthogonalLoop=1;jettySize=auto;html=1;exitX=0.5;exitY=1;exitDx=0;exitDy=0;strokeColor=default;align=center;verticalAlign=middle;fontFamily=Helvetica;fontSize=11;fontColor=default;labelBackgroundColor=default;startFill=0;endArrow=none;" edge="1" parent="1" source="NzTkiTy3NaJ4mb6epkrC-38" target="NzTkiTy3NaJ4mb6epkrC-41">
          <mxGeometry relative="1" as="geometry" />
        </mxCell>
        <mxCell id="NzTkiTy3NaJ4mb6epkrC-38" value="" style="rounded=1;whiteSpace=wrap;html=1;arcSize=50;" vertex="1" parent="1">
          <mxGeometry x="430" y="310" width="120" height="30" as="geometry" />
        </mxCell>
        <mxCell id="NzTkiTy3NaJ4mb6epkrC-39" value="min_e()" style="strokeWidth=1;html=1;shape=mxgraph.flowchart.annotation_2;align=left;labelPosition=right;pointerEvents=1;fontFamily=Helvetica;fontSize=11;fontColor=default;labelBackgroundColor=default;" vertex="1" parent="1">
          <mxGeometry x="580" y="305" width="20" height="40" as="geometry" />
        </mxCell>
        <mxCell id="NzTkiTy3NaJ4mb6epkrC-40" style="edgeStyle=orthogonalEdgeStyle;shape=connector;rounded=0;orthogonalLoop=1;jettySize=auto;html=1;exitX=1;exitY=0.5;exitDx=0;exitDy=0;entryX=0;entryY=0.5;entryDx=0;entryDy=0;entryPerimeter=0;strokeColor=default;align=center;verticalAlign=middle;fontFamily=Helvetica;fontSize=11;fontColor=default;labelBackgroundColor=default;startFill=0;endArrow=none;dashed=1;dashPattern=8 8;" edge="1" parent="1" source="NzTkiTy3NaJ4mb6epkrC-38" target="NzTkiTy3NaJ4mb6epkrC-39">
          <mxGeometry relative="1" as="geometry" />
        </mxCell>
        <mxCell id="NzTkiTy3NaJ4mb6epkrC-54" style="edgeStyle=orthogonalEdgeStyle;shape=connector;rounded=0;orthogonalLoop=1;jettySize=auto;html=1;exitX=0.5;exitY=1;exitDx=0;exitDy=0;entryX=0.5;entryY=0;entryDx=0;entryDy=0;strokeColor=default;align=center;verticalAlign=middle;fontFamily=Helvetica;fontSize=11;fontColor=default;labelBackgroundColor=default;startFill=0;endArrow=none;" edge="1" parent="1" source="NzTkiTy3NaJ4mb6epkrC-41">
          <mxGeometry relative="1" as="geometry">
            <mxPoint x="490" y="439.9999999999999" as="targetPoint" />
          </mxGeometry>
        </mxCell>
        <mxCell id="NzTkiTy3NaJ4mb6epkrC-41" value="n, arr" style="shape=parallelogram;perimeter=parallelogramPerimeter;whiteSpace=wrap;html=1;fixedSize=1;" vertex="1" parent="1">
          <mxGeometry x="430" y="360" width="120" height="60" as="geometry" />
        </mxCell>
        <mxCell id="NzTkiTy3NaJ4mb6epkrC-43" value="Да" style="text;html=1;align=center;verticalAlign=middle;whiteSpace=wrap;rounded=0;" vertex="1" parent="1">
          <mxGeometry x="480" y="630" width="60" height="30" as="geometry" />
        </mxCell>
        <mxCell id="NzTkiTy3NaJ4mb6epkrC-44" value="" style="endArrow=classic;html=1;rounded=0;strokeColor=default;align=center;verticalAlign=middle;fontFamily=Helvetica;fontSize=11;fontColor=default;labelBackgroundColor=default;edgeStyle=orthogonalEdgeStyle;" edge="1" parent="1">
          <mxGeometry width="50" height="50" relative="1" as="geometry">
            <mxPoint x="400" y="740" as="sourcePoint" />
            <mxPoint x="400" y="540" as="targetPoint" />
          </mxGeometry>
        </mxCell>
        <mxCell id="NzTkiTy3NaJ4mb6epkrC-45" value="Нет" style="text;html=1;align=center;verticalAlign=middle;whiteSpace=wrap;rounded=0;" vertex="1" parent="1">
          <mxGeometry x="390" y="580" width="60" height="30" as="geometry" />
        </mxCell>
        <mxCell id="NzTkiTy3NaJ4mb6epkrC-46" style="edgeStyle=orthogonalEdgeStyle;shape=connector;rounded=0;orthogonalLoop=1;jettySize=auto;html=1;exitX=0.5;exitY=1;exitDx=0;exitDy=0;strokeColor=default;align=center;verticalAlign=middle;fontFamily=Helvetica;fontSize=11;fontColor=default;labelBackgroundColor=default;startFill=0;endArrow=classic;endFill=1;" edge="1" parent="1">
          <mxGeometry relative="1" as="geometry">
            <mxPoint x="400" y="740" as="targetPoint" />
            <Array as="points">
              <mxPoint x="490" y="740" />
            </Array>
            <mxPoint x="490" y="720" as="sourcePoint" />
          </mxGeometry>
        </mxCell>
        <mxCell id="NzTkiTy3NaJ4mb6epkrC-48" style="edgeStyle=orthogonalEdgeStyle;shape=connector;rounded=0;orthogonalLoop=1;jettySize=auto;html=1;exitX=0.5;exitY=0;exitDx=0;exitDy=0;exitPerimeter=0;entryX=0.5;entryY=1;entryDx=0;entryDy=0;strokeColor=default;align=center;verticalAlign=middle;fontFamily=Helvetica;fontSize=11;fontColor=default;labelBackgroundColor=default;startFill=0;endArrow=none;" edge="1" parent="1" source="NzTkiTy3NaJ4mb6epkrC-51">
          <mxGeometry relative="1" as="geometry">
            <mxPoint x="490" y="569.9999999999999" as="targetPoint" />
          </mxGeometry>
        </mxCell>
        <mxCell id="NzTkiTy3NaJ4mb6epkrC-49" style="edgeStyle=orthogonalEdgeStyle;shape=connector;rounded=0;orthogonalLoop=1;jettySize=auto;html=1;exitX=0.5;exitY=1;exitDx=0;exitDy=0;exitPerimeter=0;strokeColor=default;align=center;verticalAlign=middle;fontFamily=Helvetica;fontSize=11;fontColor=default;labelBackgroundColor=default;startFill=0;endArrow=none;" edge="1" parent="1" source="NzTkiTy3NaJ4mb6epkrC-51">
          <mxGeometry relative="1" as="geometry">
            <mxPoint x="489.7931034482758" y="660" as="targetPoint" />
          </mxGeometry>
        </mxCell>
        <mxCell id="NzTkiTy3NaJ4mb6epkrC-50" style="edgeStyle=orthogonalEdgeStyle;shape=connector;rounded=0;orthogonalLoop=1;jettySize=auto;html=1;exitX=0;exitY=0.5;exitDx=0;exitDy=0;exitPerimeter=0;strokeColor=default;align=center;verticalAlign=middle;fontFamily=Helvetica;fontSize=11;fontColor=default;labelBackgroundColor=default;startFill=0;endArrow=classic;endFill=1;" edge="1" parent="1" source="NzTkiTy3NaJ4mb6epkrC-51">
          <mxGeometry relative="1" as="geometry">
            <mxPoint x="400" y="609.7586206896552" as="targetPoint" />
          </mxGeometry>
        </mxCell>
        <mxCell id="NzTkiTy3NaJ4mb6epkrC-51" value="min &amp;gt; arr[i]" style="strokeWidth=1;html=1;shape=mxgraph.flowchart.decision;whiteSpace=wrap;spacing=2;fontSize=12;" vertex="1" parent="1">
          <mxGeometry x="430" y="580" width="120" height="60" as="geometry" />
        </mxCell>
        <mxCell id="NzTkiTy3NaJ4mb6epkrC-52" style="edgeStyle=orthogonalEdgeStyle;shape=connector;rounded=0;orthogonalLoop=1;jettySize=auto;html=1;exitX=0.5;exitY=1;exitDx=0;exitDy=0;entryX=0;entryY=0.5;entryDx=0;entryDy=0;strokeColor=default;align=center;verticalAlign=middle;fontFamily=Helvetica;fontSize=11;fontColor=default;labelBackgroundColor=default;startFill=0;endArrow=classic;endFill=1;" edge="1" parent="1" source="NzTkiTy3NaJ4mb6epkrC-53">
          <mxGeometry relative="1" as="geometry">
            <Array as="points">
              <mxPoint x="490" y="740" />
              <mxPoint x="400" y="740" />
              <mxPoint x="400" y="540" />
            </Array>
            <mxPoint x="430" y="539.9999999999999" as="targetPoint" />
          </mxGeometry>
        </mxCell>
        <mxCell id="NzTkiTy3NaJ4mb6epkrC-53" value="&lt;div&gt;min := arr[i]&lt;/div&gt;" style="rounded=0;whiteSpace=wrap;html=1;fontSize=12;" vertex="1" parent="1">
          <mxGeometry x="430" y="660" width="120" height="60" as="geometry" />
        </mxCell>
        <mxCell id="NzTkiTy3NaJ4mb6epkrC-58" style="edgeStyle=orthogonalEdgeStyle;shape=connector;rounded=0;orthogonalLoop=1;jettySize=auto;html=1;exitX=1;exitY=0.5;exitDx=0;exitDy=0;strokeColor=default;align=center;verticalAlign=middle;fontFamily=Helvetica;fontSize=11;fontColor=default;labelBackgroundColor=default;startFill=0;endArrow=none;" edge="1" parent="1" source="NzTkiTy3NaJ4mb6epkrC-55">
          <mxGeometry relative="1" as="geometry">
            <mxPoint x="490" y="760" as="targetPoint" />
            <Array as="points">
              <mxPoint x="570" y="540" />
              <mxPoint x="570" y="750" />
              <mxPoint x="491" y="750" />
              <mxPoint x="491" y="760" />
            </Array>
          </mxGeometry>
        </mxCell>
        <mxCell id="NzTkiTy3NaJ4mb6epkrC-55" value="&lt;font&gt;&lt;font face=&quot;Helvetica&quot; style=&quot;background-color: light-dark(rgb(255, 255, 255), rgb(18, 18, 18));&quot;&gt;i := 0, i &lt;/font&gt;&lt;font face=&quot;Helvetica&quot; style=&quot;background-color: rgb(251, 251, 251);&quot;&gt;&amp;lt; n&lt;/font&gt;&lt;font face=&quot;Helvetica&quot; style=&quot;background-color: light-dark(rgb(255, 255, 255), rgb(18, 18, 18));&quot;&gt;, i:=i+1&lt;/font&gt;&lt;/font&gt;" style="shape=hexagon;perimeter=hexagonPerimeter2;whiteSpace=wrap;html=1;fixedSize=1;" vertex="1" parent="1">
          <mxGeometry x="430" y="510" width="120" height="60" as="geometry" />
        </mxCell>
        <mxCell id="NzTkiTy3NaJ4mb6epkrC-57" style="edgeStyle=orthogonalEdgeStyle;shape=connector;rounded=0;orthogonalLoop=1;jettySize=auto;html=1;exitX=0.5;exitY=1;exitDx=0;exitDy=0;entryX=0.5;entryY=0;entryDx=0;entryDy=0;strokeColor=default;align=center;verticalAlign=middle;fontFamily=Helvetica;fontSize=11;fontColor=default;labelBackgroundColor=default;startFill=0;endArrow=none;" edge="1" parent="1" source="NzTkiTy3NaJ4mb6epkrC-56" target="NzTkiTy3NaJ4mb6epkrC-55">
          <mxGeometry relative="1" as="geometry" />
        </mxCell>
        <mxCell id="NzTkiTy3NaJ4mb6epkrC-56" value="min = arr[0]" style="rounded=0;whiteSpace=wrap;html=1;fontSize=12;" vertex="1" parent="1">
          <mxGeometry x="430" y="440" width="120" height="60" as="geometry" />
        </mxCell>
        <mxCell id="NzTkiTy3NaJ4mb6epkrC-61" style="edgeStyle=orthogonalEdgeStyle;shape=connector;rounded=0;orthogonalLoop=1;jettySize=auto;html=1;exitX=0.5;exitY=1;exitDx=0;exitDy=0;entryX=0.5;entryY=0;entryDx=0;entryDy=0;strokeColor=default;align=center;verticalAlign=middle;fontFamily=Helvetica;fontSize=11;fontColor=default;labelBackgroundColor=default;startFill=0;endArrow=none;" edge="1" parent="1" source="NzTkiTy3NaJ4mb6epkrC-59" target="NzTkiTy3NaJ4mb6epkrC-60">
          <mxGeometry relative="1" as="geometry" />
        </mxCell>
        <mxCell id="NzTkiTy3NaJ4mb6epkrC-59" value="min" style="shape=parallelogram;perimeter=parallelogramPerimeter;whiteSpace=wrap;html=1;fixedSize=1;" vertex="1" parent="1">
          <mxGeometry x="430" y="760" width="120" height="60" as="geometry" />
        </mxCell>
        <mxCell id="NzTkiTy3NaJ4mb6epkrC-60" value="" style="rounded=1;whiteSpace=wrap;html=1;arcSize=50;" vertex="1" parent="1">
          <mxGeometry x="430" y="840" width="120" height="30" as="geometry" />
        </mxCell>
      </root>
    </mxGraphModel>
  </diagram>
</mxfile>
